<svg width="40" height="30" viewBox="0 0 52 47" fill="none" xmlns="http://www.w3.org/2000/svg">
    <path d="M25.9981 19.9602C23.4761 19.9546 21.0433 20.8928 19.1781 22.5902C19.4238 22.866 19.5622 23.2209 19.5681 23.5902C19.5681 23.7959 19.5274 23.9996 19.4484 24.1895C19.3694 24.3794 19.2536 24.5518 19.1076 24.6968C18.9617 24.8418 18.7886 24.9565 18.5981 25.0343C18.4077 25.1121 18.2038 25.1515 17.9981 25.1502C17.7317 25.1504 17.4699 25.0815 17.2381 24.9502C16.1028 26.8783 15.6364 29.1275 15.9115 31.348C16.1866 33.5685 17.1877 35.6359 18.7591 37.2287C20.3306 38.8215 22.3843 39.8504 24.6009 40.1554C26.8175 40.4604 29.0728 40.0245 31.016 38.9153C32.9592 37.8062 34.4815 36.086 35.3461 34.0223C36.2107 31.9586 36.3692 29.667 35.7969 27.504C35.2246 25.3409 33.9535 23.4276 32.1815 22.0615C30.4094 20.6954 28.2356 19.9532 25.9981 19.9502V19.9602ZM25.9981 33.3802C25.3509 33.3802 24.7183 33.1882 24.1803 32.8284C23.6424 32.4686 23.2233 31.9573 22.9761 31.3593C22.7289 30.7612 22.6647 30.1032 22.7917 29.4686C22.9187 28.834 23.2311 28.2513 23.6894 27.7944C24.1477 27.3375 24.7313 27.0269 25.3663 26.9018C26.0013 26.7768 26.6591 26.843 27.2564 27.092C27.8537 27.341 28.3638 27.7617 28.7219 28.3008C29.08 28.8398 29.2701 29.473 29.2681 30.1202C29.2681 30.5491 29.1834 30.9739 29.019 31.3701C28.8545 31.7662 28.6135 32.1261 28.3097 32.4289C28.006 32.7318 27.6454 32.9717 27.2487 33.1349C26.852 33.2982 26.427 33.3815 25.9981 33.3802Z" fill="black"/>
    <path d="M51.0781 39.59L29.7781 2.7C27.6981 -0.9 24.2981 -0.9 22.2281 2.7L0.8881 39.59C-1.1919 43.18 0.508099 46.13 4.6681 46.13H47.2981C51.4581 46.16 53.1581 43.21 51.0781 39.59ZM25.9981 41.24C24.0093 41.2394 22.0568 40.7065 20.3435 39.6964C18.6303 38.6863 17.2186 37.236 16.2553 35.496C15.2919 33.756 14.8119 31.7899 14.8652 29.8017C14.9185 27.8135 15.503 25.8759 16.5581 24.19C16.4773 24.0039 16.4364 23.8029 16.4381 23.6C16.4381 23.1863 16.6025 22.7895 16.8951 22.4969C17.1876 22.2043 17.5844 22.04 17.9981 22.04C18.0912 22.0297 18.1851 22.0297 18.2781 22.04C19.5921 20.7766 21.1959 19.8549 22.9491 19.3558C24.7022 18.8566 26.5511 18.7953 28.3334 19.1772C30.1158 19.5591 31.7772 20.3726 33.1719 21.5462C34.5666 22.7198 35.6521 24.2177 36.333 25.9086C37.0139 27.5994 37.2695 29.4315 37.0774 31.2442C36.8853 33.0568 36.2513 34.7946 35.231 36.3052C34.2108 37.8157 32.8355 39.0528 31.2257 39.908C29.616 40.7631 27.8209 41.2102 25.9981 41.21V41.24Z" fill="black"/>
</svg>